G04 DipTrace 2.4.0.2*
%INPowerPoleExpander.GTL*%
%MOMM*%
%ADD14C,0.3*%
%ADD15C,0.8*%
%ADD16C,1.0*%
%ADD17R,2.7X1.6*%
%ADD18R,1.5X1.3*%
%ADD19C,6.0*%
%ADD20O,6.0X3.5*%
%ADD21C,5.0*%
%FSLAX53Y53*%
G04*
G71*
G90*
G75*
G01*
%LNTop*%
%LPD*%
X17788Y12720D2*
D14*
Y7620D1*
X33028D1*
Y12720D2*
Y7620D1*
X48268D1*
Y12720D2*
Y7620D1*
X63508D1*
Y12720D2*
Y7620D1*
X78748D1*
Y12720D2*
Y7620D1*
X88908D1*
X93988Y12700D1*
Y20320D1*
X11120Y23183D2*
Y12700D1*
X12390Y11430D1*
X13978D1*
X17788Y7620D1*
X4770Y20320D2*
Y15240D1*
X7310Y12700D1*
X17768D1*
X17788Y12720D1*
Y41020D2*
X25408D1*
X33028D1*
X40648D1*
X48268D1*
X55888D1*
X63508D1*
X71128D1*
X78748D1*
X86368D1*
X91068D1*
X93988Y38100D1*
Y27940D1*
X25408Y38360D2*
Y41020D1*
X71128Y38360D2*
Y41020D1*
X55888Y38360D2*
Y41020D1*
X40648Y38360D2*
Y41020D1*
X86368Y38360D2*
Y41020D1*
X11120Y29523D2*
D15*
Y39053D1*
X13343Y41275D1*
X17533D1*
X17788Y41020D1*
X4770Y27940D2*
D14*
Y35878D1*
X10168Y41275D1*
X17533D1*
X17788Y41020D1*
X78748Y16820D2*
Y21920D1*
Y33020D1*
X86368Y35560D2*
Y33020D1*
X78748D1*
X63508Y16820D2*
Y21920D1*
Y33020D1*
X71128Y35560D2*
Y33020D1*
X63508D1*
X48268Y16820D2*
Y21920D1*
Y33020D1*
X55888Y35560D2*
Y33020D1*
X48268D1*
X33028Y16820D2*
Y21920D1*
Y33020D1*
X40648Y35560D2*
Y33020D1*
X33028D1*
X17788Y21920D2*
Y33020D1*
Y16820D2*
Y21920D1*
X25408Y35560D2*
Y33020D1*
X17788D1*
X11120Y27623D2*
D15*
Y25083D1*
X6364Y48448D2*
D14*
X93665D1*
X6688Y48152D2*
X93342D1*
X6941Y47855D2*
X93084D1*
X7147Y47558D2*
X92882D1*
X7311Y47262D2*
X92718D1*
X7438Y46965D2*
X92587D1*
X7536Y46668D2*
X92489D1*
X7606Y46372D2*
X92423D1*
X7649Y46075D2*
X92376D1*
X7667Y45778D2*
X92362D1*
X7663Y45482D2*
X92367D1*
X7625Y45185D2*
X92400D1*
X7569Y44888D2*
X92460D1*
X7480Y44592D2*
X92545D1*
X7367Y44295D2*
X92662D1*
X7217Y43998D2*
X92812D1*
X7030Y43702D2*
X93000D1*
X1140Y43405D2*
X1476D1*
X6795D2*
X93234D1*
X98553D2*
X98887D1*
X1140Y43108D2*
X1771D1*
X6500D2*
X93529D1*
X98258D2*
X98887D1*
X1140Y42812D2*
X2151D1*
X6116D2*
X93909D1*
X97874D2*
X98887D1*
X1140Y42515D2*
X2690D1*
X5581D2*
X94448D1*
X97335D2*
X98887D1*
X1140Y42218D2*
X4007D1*
X4259D2*
X95765D1*
X96020D2*
X98887D1*
X1140Y41922D2*
X98887D1*
X1140Y41625D2*
X98887D1*
X1140Y41328D2*
X98887D1*
X1140Y41032D2*
X98887D1*
X1140Y40735D2*
X98887D1*
X1140Y40438D2*
X98887D1*
X1140Y40142D2*
X98887D1*
X1140Y39845D2*
X98887D1*
X1140Y39548D2*
X23564D1*
X27247D2*
X38807D1*
X42491D2*
X54046D1*
X57730D2*
X69285D1*
X72969D2*
X84525D1*
X88208D2*
X98887D1*
X1140Y39252D2*
X23564D1*
X27247D2*
X38807D1*
X42491D2*
X54046D1*
X57730D2*
X69285D1*
X72969D2*
X84525D1*
X88208D2*
X98887D1*
X1140Y38955D2*
X23564D1*
X27247D2*
X38807D1*
X42491D2*
X54046D1*
X57730D2*
X69285D1*
X72969D2*
X84525D1*
X88208D2*
X98887D1*
X1140Y38658D2*
X23564D1*
X27247D2*
X38807D1*
X42491D2*
X54046D1*
X57730D2*
X69285D1*
X72969D2*
X84525D1*
X88208D2*
X98887D1*
X1140Y38362D2*
X23564D1*
X27247D2*
X38807D1*
X42491D2*
X54046D1*
X57730D2*
X69285D1*
X72969D2*
X84525D1*
X88208D2*
X98887D1*
X1140Y38065D2*
X23564D1*
X27247D2*
X38807D1*
X42491D2*
X54046D1*
X57730D2*
X69285D1*
X72969D2*
X84525D1*
X88208D2*
X98887D1*
X1140Y37768D2*
X23564D1*
X27247D2*
X38807D1*
X42491D2*
X54046D1*
X57730D2*
X69285D1*
X72969D2*
X84525D1*
X88208D2*
X98887D1*
X1140Y37472D2*
X11259D1*
X89089D2*
X98887D1*
X1140Y37175D2*
X11259D1*
X89089D2*
X98887D1*
X1140Y36878D2*
X11259D1*
X89089D2*
X98887D1*
X1140Y36582D2*
X11259D1*
X89089D2*
X98887D1*
X1140Y36285D2*
X11259D1*
X89089D2*
X98887D1*
X1140Y35988D2*
X11259D1*
X89089D2*
X98887D1*
X1140Y35692D2*
X11259D1*
X89089D2*
X98887D1*
X1140Y35395D2*
X11259D1*
X89089D2*
X98887D1*
X1140Y35098D2*
X11259D1*
X89089D2*
X98887D1*
X1140Y34802D2*
X11259D1*
X89089D2*
X98887D1*
X1140Y34505D2*
X11259D1*
X89089D2*
X98887D1*
X1140Y34208D2*
X11259D1*
X89089D2*
X98887D1*
X1140Y33912D2*
X11259D1*
X89089D2*
X98887D1*
X1140Y33615D2*
X11259D1*
X89089D2*
X98887D1*
X1140Y33318D2*
X11259D1*
X89089D2*
X98887D1*
X1140Y33022D2*
X11259D1*
X89089D2*
X98887D1*
X1140Y32725D2*
X11259D1*
X89089D2*
X98887D1*
X1140Y32428D2*
X11259D1*
X89089D2*
X98887D1*
X1140Y32132D2*
X11259D1*
X89089D2*
X98887D1*
X1140Y31835D2*
X11259D1*
X89089D2*
X98887D1*
X1140Y31538D2*
X11259D1*
X89089D2*
X98887D1*
X1140Y31242D2*
X11259D1*
X89089D2*
X98887D1*
X1140Y30945D2*
X11259D1*
X89089D2*
X98887D1*
X1140Y30648D2*
X11259D1*
X89089D2*
X98887D1*
X1140Y30352D2*
X9876D1*
X89089D2*
X98887D1*
X1140Y30055D2*
X9351D1*
X89089D2*
X98887D1*
X1140Y29758D2*
X9351D1*
X89089D2*
X98887D1*
X1140Y29462D2*
X9351D1*
X89089D2*
X98887D1*
X1140Y29165D2*
X9351D1*
X89089D2*
X98887D1*
X1140Y28868D2*
X9351D1*
X89089D2*
X98887D1*
X1140Y28572D2*
X9351D1*
X89089D2*
X98887D1*
X1140Y28275D2*
X9351D1*
X89089D2*
X98887D1*
X1140Y27978D2*
X9351D1*
X89089D2*
X98887D1*
X1140Y27682D2*
X9351D1*
X89089D2*
X98887D1*
X1140Y27385D2*
X9351D1*
X89089D2*
X98887D1*
X1140Y27088D2*
X9351D1*
X89089D2*
X98887D1*
X1140Y26792D2*
X9351D1*
X89089D2*
X98887D1*
X1140Y26495D2*
X9351D1*
X89089D2*
X98887D1*
X1140Y26198D2*
X9351D1*
X89089D2*
X98887D1*
X1140Y25902D2*
X9351D1*
X89089D2*
X98887D1*
X1140Y25605D2*
X9351D1*
X89089D2*
X98887D1*
X1140Y25308D2*
X9351D1*
X89089D2*
X98887D1*
X1140Y25012D2*
X9351D1*
X89089D2*
X98887D1*
X23626Y39622D2*
X27220D1*
Y37615D1*
X38836D1*
Y39622D1*
X42460D1*
Y37615D1*
X54080D1*
X54076Y37818D1*
Y39622D1*
X57700D1*
Y37615D1*
X69314D1*
X69316Y39622D1*
X72940D1*
Y37615D1*
X84558D1*
X84556Y38568D1*
Y39622D1*
X88180D1*
Y37615D1*
X88908D1*
X89034Y37542D1*
X89058Y37465D1*
Y24915D1*
X98918D1*
Y43951D1*
X98698Y43622D1*
X98508Y43389D1*
X98299Y43174D1*
X98073Y42978D1*
X97830Y42801D1*
X97573Y42646D1*
X97304Y42514D1*
X97025Y42405D1*
X96737Y42320D1*
X96443Y42260D1*
X96145Y42226D1*
X95846Y42217D1*
X95546Y42234D1*
X95249Y42276D1*
X94957Y42344D1*
X94672Y42436D1*
X94395Y42553D1*
X94130Y42692D1*
X93877Y42854D1*
X93640Y43037D1*
X93418Y43240D1*
X93215Y43460D1*
X93032Y43698D1*
X92869Y43950D1*
X92729Y44215D1*
X92612Y44491D1*
X92519Y44776D1*
X92450Y45068D1*
X92407Y45365D1*
X92390Y45664D1*
X92398Y45964D1*
X92431Y46262D1*
X92490Y46556D1*
X92574Y46844D1*
X92683Y47123D1*
X92814Y47393D1*
X92969Y47650D1*
X93144Y47893D1*
X93340Y48120D1*
X93555Y48330D1*
X93787Y48520D1*
X94034Y48690D1*
X94118Y48745D1*
X5903D1*
X6227Y48531D1*
X6459Y48342D1*
X6675Y48133D1*
X6872Y47907D1*
X7049Y47665D1*
X7205Y47409D1*
X7338Y47140D1*
X7448Y46861D1*
X7533Y46573D1*
X7594Y46280D1*
X7629Y45982D1*
X7639Y45720D1*
X7626Y45420D1*
X7588Y45123D1*
X7524Y44830D1*
X7435Y44543D1*
X7323Y44265D1*
X7187Y43998D1*
X7028Y43744D1*
X6848Y43503D1*
X6649Y43279D1*
X6431Y43073D1*
X6196Y42887D1*
X5946Y42721D1*
X5683Y42577D1*
X5409Y42456D1*
X5125Y42359D1*
X4834Y42287D1*
X4538Y42240D1*
X4239Y42218D1*
X3939Y42222D1*
X3640Y42252D1*
X3345Y42307D1*
X3056Y42387D1*
X2775Y42492D1*
X2504Y42620D1*
X2245Y42771D1*
X2000Y42943D1*
X1770Y43136D1*
X1558Y43348D1*
X1364Y43577D1*
X1191Y43822D1*
X1110Y43945D1*
Y24915D1*
X9383D1*
Y30163D1*
X9456Y30289D1*
X9533Y30313D1*
X9912D1*
X9908Y30635D1*
X11291D1*
X11288Y32413D1*
Y37465D1*
X11361Y37592D1*
X11438Y37615D1*
X23592D1*
X23596Y37968D1*
Y39622D1*
X23626D1*
X25408Y39621D2*
D16*
Y38360D1*
X23596D2*
X27219D1*
X40648Y39621D2*
Y38360D1*
X38836D2*
X42459D1*
X55888Y39621D2*
Y38360D1*
X54076D2*
X57699D1*
X71128Y39621D2*
Y38360D1*
X69316D2*
X72939D1*
X86368Y39621D2*
Y38360D1*
X84556D2*
X88179D1*
X1140Y23048D2*
D14*
X11259D1*
X89089D2*
X98887D1*
X1140Y22752D2*
X11259D1*
X89089D2*
X98887D1*
X1140Y22455D2*
X11259D1*
X89089D2*
X98887D1*
X1140Y22158D2*
X11259D1*
X89089D2*
X98887D1*
X1140Y21862D2*
X11259D1*
X89089D2*
X98887D1*
X1140Y21565D2*
X11259D1*
X89089D2*
X98887D1*
X1140Y21268D2*
X11259D1*
X89089D2*
X98887D1*
X1140Y20972D2*
X11259D1*
X89089D2*
X98887D1*
X1140Y20675D2*
X11259D1*
X89089D2*
X98887D1*
X1140Y20378D2*
X11259D1*
X89089D2*
X98887D1*
X1140Y20082D2*
X11259D1*
X89089D2*
X98887D1*
X1140Y19785D2*
X11259D1*
X89089D2*
X98887D1*
X1140Y19488D2*
X11259D1*
X89089D2*
X98887D1*
X1140Y19192D2*
X11259D1*
X89089D2*
X98887D1*
X1140Y18895D2*
X11259D1*
X89089D2*
X98887D1*
X1140Y18598D2*
X11259D1*
X89089D2*
X98887D1*
X1140Y18302D2*
X11259D1*
X89089D2*
X98887D1*
X1140Y18005D2*
X11259D1*
X89089D2*
X98887D1*
X1140Y17708D2*
X11259D1*
X89089D2*
X98887D1*
X1140Y17412D2*
X11259D1*
X89089D2*
X98887D1*
X1140Y17115D2*
X11259D1*
X89089D2*
X98887D1*
X1140Y16818D2*
X11259D1*
X89089D2*
X98887D1*
X1140Y16522D2*
X11259D1*
X89089D2*
X98887D1*
X1140Y16225D2*
X11259D1*
X89089D2*
X98887D1*
X1140Y15928D2*
X11259D1*
X89089D2*
X98887D1*
X1140Y15632D2*
X11259D1*
X89089D2*
X98887D1*
X1140Y15335D2*
X11259D1*
X89089D2*
X98887D1*
X1140Y15038D2*
X11259D1*
X89089D2*
X98887D1*
X1140Y14742D2*
X11259D1*
X89089D2*
X98887D1*
X1140Y14445D2*
X11259D1*
X89089D2*
X98887D1*
X1140Y14148D2*
X11259D1*
X89042D2*
X98887D1*
X1140Y13852D2*
X98887D1*
X1140Y13555D2*
X98887D1*
X1140Y13258D2*
X98887D1*
X1140Y12962D2*
X98887D1*
X1140Y12665D2*
X98887D1*
X1140Y12368D2*
X98887D1*
X1140Y12072D2*
X98887D1*
X1140Y11775D2*
X98887D1*
X1140Y11478D2*
X98887D1*
X1140Y11182D2*
X98887D1*
X1140Y10885D2*
X98887D1*
X1140Y10588D2*
X98887D1*
X1140Y10292D2*
X98887D1*
X1140Y9995D2*
X98887D1*
X1140Y9698D2*
X98887D1*
X1140Y9402D2*
X98887D1*
X1140Y9105D2*
X98887D1*
X1140Y8808D2*
X98887D1*
X1140Y8512D2*
X98887D1*
X1140Y8215D2*
X98887D1*
X1140Y7918D2*
X98887D1*
X1140Y7622D2*
X3848D1*
X4419D2*
X95606D1*
X96177D2*
X98887D1*
X1140Y7325D2*
X2671D1*
X5595D2*
X94429D1*
X97353D2*
X98887D1*
X1140Y7028D2*
X2142D1*
X6130D2*
X93900D1*
X97888D2*
X98887D1*
X1140Y6732D2*
X1762D1*
X6510D2*
X93520D1*
X98267D2*
X98887D1*
X1140Y6435D2*
X1471D1*
X6800D2*
X93225D1*
X98558D2*
X98887D1*
X7035Y6138D2*
X92995D1*
X7222Y5842D2*
X92807D1*
X7367Y5545D2*
X92657D1*
X7485Y5248D2*
X92545D1*
X7569Y4952D2*
X92456D1*
X7630Y4655D2*
X92400D1*
X7663Y4358D2*
X92367D1*
X7667Y4062D2*
X92362D1*
X7649Y3765D2*
X92376D1*
X7606Y3468D2*
X92423D1*
X7536Y3172D2*
X92493D1*
X7438Y2875D2*
X92592D1*
X7306Y2578D2*
X92723D1*
X7142Y2282D2*
X92887D1*
X6936Y1985D2*
X93093D1*
X6678Y1688D2*
X93346D1*
X6355Y1392D2*
X93675D1*
X7636Y3978D2*
X7610Y3679D1*
X7559Y3384D1*
X7483Y3094D1*
X7382Y2811D1*
X7257Y2538D1*
X7110Y2277D1*
X6941Y2030D1*
X6751Y1797D1*
X6542Y1582D1*
X6316Y1386D1*
X6073Y1209D1*
X5910Y1103D1*
X94124D1*
X93877Y1262D1*
X93640Y1445D1*
X93418Y1648D1*
X93215Y1868D1*
X93032Y2106D1*
X92869Y2358D1*
X92729Y2623D1*
X92612Y2899D1*
X92519Y3184D1*
X92450Y3476D1*
X92407Y3773D1*
X92390Y4072D1*
X92398Y4372D1*
X92431Y4670D1*
X92490Y4964D1*
X92574Y5252D1*
X92683Y5531D1*
X92814Y5801D1*
X92969Y6058D1*
X93144Y6301D1*
X93340Y6528D1*
X93555Y6738D1*
X93787Y6928D1*
X94034Y7098D1*
X94295Y7246D1*
X94567Y7371D1*
X94850Y7472D1*
X95139Y7549D1*
X95435Y7601D1*
X95734Y7628D1*
X96033Y7629D1*
X96332Y7604D1*
X96628Y7553D1*
X96918Y7478D1*
X97201Y7378D1*
X97474Y7254D1*
X97736Y7107D1*
X97984Y6939D1*
X98216Y6750D1*
X98432Y6541D1*
X98629Y6315D1*
X98806Y6073D1*
X98918Y5903D1*
Y23345D1*
X89058D1*
Y14288D1*
X88984Y14161D1*
X88908Y14138D1*
X11438D1*
X11311Y14211D1*
X11288Y14288D1*
Y23345D1*
X1110D1*
Y5893D1*
X1297Y6181D1*
X1483Y6417D1*
X1688Y6635D1*
X1912Y6835D1*
X2152Y7015D1*
X2406Y7175D1*
X2673Y7311D1*
X2950Y7425D1*
X3237Y7514D1*
X3530Y7579D1*
X3827Y7618D1*
X4126Y7631D1*
X4426Y7619D1*
X4724Y7582D1*
X5017Y7519D1*
X5304Y7431D1*
X5582Y7319D1*
X5849Y7183D1*
X6105Y7026D1*
X6345Y6847D1*
X6570Y6648D1*
X6776Y6430D1*
X6963Y6196D1*
X7130Y5947D1*
X7274Y5684D1*
X7396Y5410D1*
X7494Y5126D1*
X7567Y4835D1*
X7615Y4539D1*
X7637Y4240D1*
X7636Y3978D1*
X73848Y36066D2*
X87777D1*
X73848Y35769D2*
X87777D1*
X73848Y35472D2*
X87777D1*
X73848Y35176D2*
X87777D1*
X73848Y34879D2*
X87777D1*
X73848Y34582D2*
X87777D1*
X73848Y34286D2*
X87777D1*
X73848Y33989D2*
X87777D1*
X73848Y33692D2*
X87777D1*
X73848Y33396D2*
X87777D1*
X73848Y33099D2*
X87777D1*
X73848Y32802D2*
X87777D1*
X73848Y32506D2*
X87777D1*
X73848Y32209D2*
X87777D1*
X73848Y31912D2*
X87777D1*
X73848Y31616D2*
X87777D1*
X73848Y31319D2*
X87777D1*
X73848Y31022D2*
X87777D1*
X73848Y30726D2*
X87777D1*
X73848Y30429D2*
X87777D1*
X73848Y30132D2*
X87777D1*
X73848Y29836D2*
X87777D1*
X73848Y29539D2*
X87777D1*
X73848Y29242D2*
X87777D1*
X73848Y28946D2*
X87777D1*
X73848Y28649D2*
X87777D1*
X73848Y28352D2*
X87777D1*
X73848Y28056D2*
X87777D1*
X73848Y27759D2*
X87777D1*
X73848Y27462D2*
X87777D1*
X73848Y27166D2*
X87777D1*
X73848Y26869D2*
X87777D1*
X73848Y26572D2*
X87777D1*
X73848Y26276D2*
X87777D1*
X73848Y25979D2*
X87777D1*
X73848Y25682D2*
X87777D1*
X73848Y25386D2*
X87777D1*
X73848Y25089D2*
X87777D1*
X73848Y24792D2*
X87777D1*
X73848Y24496D2*
X87777D1*
X73848Y24199D2*
X87777D1*
X73848Y23902D2*
X87777D1*
X73848Y23606D2*
X87777D1*
X73848Y23309D2*
X87777D1*
X73848Y23012D2*
X87777D1*
X73848Y22716D2*
X87777D1*
X73848Y22419D2*
X87777D1*
X73848Y22122D2*
X87777D1*
X73848Y21826D2*
X87777D1*
X73848Y21529D2*
X87777D1*
X73848Y21232D2*
X87777D1*
X73848Y20936D2*
X87777D1*
X73848Y20639D2*
X87777D1*
X73848Y20342D2*
X87777D1*
X73848Y20046D2*
X87777D1*
X73848Y19749D2*
X87777D1*
X73848Y19452D2*
X87777D1*
X73848Y19156D2*
X87777D1*
X73848Y18859D2*
X87777D1*
X73848Y18562D2*
X87777D1*
X73848Y18266D2*
X87777D1*
X73848Y17969D2*
X87777D1*
X73848Y17672D2*
X87777D1*
X73848Y17376D2*
X87777D1*
X73848Y17079D2*
X87777D1*
X73848Y16782D2*
X87777D1*
X73848Y16486D2*
X87777D1*
X73848Y16189D2*
X87777D1*
X73848Y15892D2*
X87777D1*
X73848Y15596D2*
X87777D1*
X73818Y36212D2*
Y15390D1*
X87805D1*
Y36362D1*
X73818D1*
Y36212D1*
X58608Y36066D2*
X72537D1*
X58608Y35769D2*
X72537D1*
X58608Y35472D2*
X72537D1*
X58608Y35176D2*
X72537D1*
X58608Y34879D2*
X72537D1*
X58608Y34582D2*
X72537D1*
X58608Y34286D2*
X72537D1*
X58608Y33989D2*
X72537D1*
X58608Y33692D2*
X72537D1*
X58608Y33396D2*
X72537D1*
X58608Y33099D2*
X72537D1*
X58608Y32802D2*
X72537D1*
X58608Y32506D2*
X72537D1*
X58608Y32209D2*
X72537D1*
X58608Y31912D2*
X72537D1*
X58608Y31616D2*
X72537D1*
X58608Y31319D2*
X72537D1*
X58608Y31022D2*
X72537D1*
X58608Y30726D2*
X72537D1*
X58608Y30429D2*
X72537D1*
X58608Y30132D2*
X72537D1*
X58608Y29836D2*
X72537D1*
X58608Y29539D2*
X72537D1*
X58608Y29242D2*
X72537D1*
X58608Y28946D2*
X72537D1*
X58608Y28649D2*
X72537D1*
X58608Y28352D2*
X72537D1*
X58608Y28056D2*
X72537D1*
X58608Y27759D2*
X72537D1*
X58608Y27462D2*
X72537D1*
X58608Y27166D2*
X72537D1*
X58608Y26869D2*
X72537D1*
X58608Y26572D2*
X72537D1*
X58608Y26276D2*
X72537D1*
X58608Y25979D2*
X72537D1*
X58608Y25682D2*
X72537D1*
X58608Y25386D2*
X72537D1*
X58608Y25089D2*
X72537D1*
X58608Y24792D2*
X72537D1*
X58608Y24496D2*
X72537D1*
X58608Y24199D2*
X72537D1*
X58608Y23902D2*
X72537D1*
X58608Y23606D2*
X72537D1*
X58608Y23309D2*
X72537D1*
X58608Y23012D2*
X72537D1*
X58608Y22716D2*
X72537D1*
X58608Y22419D2*
X72537D1*
X58608Y22122D2*
X72537D1*
X58608Y21826D2*
X72537D1*
X58608Y21529D2*
X72537D1*
X58608Y21232D2*
X72537D1*
X58608Y20936D2*
X72537D1*
X58608Y20639D2*
X72537D1*
X58608Y20342D2*
X72537D1*
X58608Y20046D2*
X72537D1*
X58608Y19749D2*
X72537D1*
X58608Y19452D2*
X72537D1*
X58608Y19156D2*
X72537D1*
X58608Y18859D2*
X72537D1*
X58608Y18562D2*
X72537D1*
X58608Y18266D2*
X72537D1*
X58608Y17969D2*
X72537D1*
X58608Y17672D2*
X72537D1*
X58608Y17376D2*
X72537D1*
X58608Y17079D2*
X72537D1*
X58608Y16782D2*
X72537D1*
X58608Y16486D2*
X72537D1*
X58608Y16189D2*
X72537D1*
X58608Y15892D2*
X72537D1*
X58608Y15596D2*
X72537D1*
X58578Y36212D2*
X58577Y15390D1*
X72565D1*
Y36362D1*
X58578D1*
Y36212D1*
X43368Y36066D2*
X57297D1*
X43368Y35769D2*
X57297D1*
X43368Y35472D2*
X57297D1*
X43368Y35176D2*
X57297D1*
X43368Y34879D2*
X57297D1*
X43368Y34582D2*
X57297D1*
X43368Y34286D2*
X57297D1*
X43368Y33989D2*
X57297D1*
X43368Y33692D2*
X57297D1*
X43368Y33396D2*
X57297D1*
X43368Y33099D2*
X57297D1*
X43368Y32802D2*
X57297D1*
X43368Y32506D2*
X57297D1*
X43368Y32209D2*
X57297D1*
X43368Y31912D2*
X57297D1*
X43368Y31616D2*
X57297D1*
X43368Y31319D2*
X57297D1*
X43368Y31022D2*
X57297D1*
X43368Y30726D2*
X57297D1*
X43368Y30429D2*
X57297D1*
X43368Y30132D2*
X57297D1*
X43368Y29836D2*
X57297D1*
X43368Y29539D2*
X57297D1*
X43368Y29242D2*
X57297D1*
X43368Y28946D2*
X57297D1*
X43368Y28649D2*
X57297D1*
X43368Y28352D2*
X57297D1*
X43368Y28056D2*
X57297D1*
X43368Y27759D2*
X57297D1*
X43368Y27462D2*
X57297D1*
X43368Y27166D2*
X57297D1*
X43368Y26869D2*
X57297D1*
X43368Y26572D2*
X57297D1*
X43368Y26276D2*
X57297D1*
X43368Y25979D2*
X57297D1*
X43368Y25682D2*
X57297D1*
X43368Y25386D2*
X57297D1*
X43368Y25089D2*
X57297D1*
X43368Y24792D2*
X57297D1*
X43368Y24496D2*
X57297D1*
X43368Y24199D2*
X57297D1*
X43368Y23902D2*
X57297D1*
X43368Y23606D2*
X57297D1*
X43368Y23309D2*
X57297D1*
X43368Y23012D2*
X57297D1*
X43368Y22716D2*
X57297D1*
X43368Y22419D2*
X57297D1*
X43368Y22122D2*
X57297D1*
X43368Y21826D2*
X57297D1*
X43368Y21529D2*
X57297D1*
X43368Y21232D2*
X57297D1*
X43368Y20936D2*
X57297D1*
X43368Y20639D2*
X57297D1*
X43368Y20342D2*
X57297D1*
X43368Y20046D2*
X57297D1*
X43368Y19749D2*
X57297D1*
X43368Y19452D2*
X57297D1*
X43368Y19156D2*
X57297D1*
X43368Y18859D2*
X57297D1*
X43368Y18562D2*
X57297D1*
X43368Y18266D2*
X57297D1*
X43368Y17969D2*
X57297D1*
X43368Y17672D2*
X57297D1*
X43368Y17376D2*
X57297D1*
X43368Y17079D2*
X57297D1*
X43368Y16782D2*
X57297D1*
X43368Y16486D2*
X57297D1*
X43368Y16189D2*
X57297D1*
X43368Y15892D2*
X57297D1*
X43368Y15596D2*
X57297D1*
X43338Y36212D2*
Y15390D1*
X57325D1*
Y36362D1*
X43338D1*
Y36212D1*
X28128Y36066D2*
X42057D1*
X28128Y35769D2*
X42057D1*
X28128Y35472D2*
X42057D1*
X28128Y35176D2*
X42057D1*
X28128Y34879D2*
X42057D1*
X28128Y34582D2*
X42057D1*
X28128Y34286D2*
X42057D1*
X28128Y33989D2*
X42057D1*
X28128Y33692D2*
X42057D1*
X28128Y33396D2*
X42057D1*
X28128Y33099D2*
X42057D1*
X28128Y32802D2*
X42057D1*
X28128Y32506D2*
X42057D1*
X28128Y32209D2*
X42057D1*
X28128Y31912D2*
X42057D1*
X28128Y31616D2*
X42057D1*
X28128Y31319D2*
X42057D1*
X28128Y31022D2*
X42057D1*
X28128Y30726D2*
X42057D1*
X28128Y30429D2*
X42057D1*
X28128Y30132D2*
X42057D1*
X28128Y29836D2*
X42057D1*
X28128Y29539D2*
X42057D1*
X28128Y29242D2*
X42057D1*
X28128Y28946D2*
X42057D1*
X28128Y28649D2*
X42057D1*
X28128Y28352D2*
X42057D1*
X28128Y28056D2*
X42057D1*
X28128Y27759D2*
X42057D1*
X28128Y27462D2*
X42057D1*
X28128Y27166D2*
X42057D1*
X28128Y26869D2*
X42057D1*
X28128Y26572D2*
X42057D1*
X28128Y26276D2*
X42057D1*
X28128Y25979D2*
X42057D1*
X28128Y25682D2*
X42057D1*
X28128Y25386D2*
X42057D1*
X28128Y25089D2*
X42057D1*
X28128Y24792D2*
X42057D1*
X28128Y24496D2*
X42057D1*
X28128Y24199D2*
X42057D1*
X28128Y23902D2*
X42057D1*
X28128Y23606D2*
X42057D1*
X28128Y23309D2*
X42057D1*
X28128Y23012D2*
X42057D1*
X28128Y22716D2*
X42057D1*
X28128Y22419D2*
X42057D1*
X28128Y22122D2*
X42057D1*
X28128Y21826D2*
X42057D1*
X28128Y21529D2*
X42057D1*
X28128Y21232D2*
X42057D1*
X28128Y20936D2*
X42057D1*
X28128Y20639D2*
X42057D1*
X28128Y20342D2*
X42057D1*
X28128Y20046D2*
X42057D1*
X28128Y19749D2*
X42057D1*
X28128Y19452D2*
X42057D1*
X28128Y19156D2*
X42057D1*
X28128Y18859D2*
X42057D1*
X28128Y18562D2*
X42057D1*
X28128Y18266D2*
X42057D1*
X28128Y17969D2*
X42057D1*
X28128Y17672D2*
X42057D1*
X28128Y17376D2*
X42057D1*
X28128Y17079D2*
X42057D1*
X28128Y16782D2*
X42057D1*
X28128Y16486D2*
X42057D1*
X28128Y16189D2*
X42057D1*
X28128Y15892D2*
X42057D1*
X28128Y15596D2*
X42057D1*
X28098Y36212D2*
Y15390D1*
X42085D1*
Y36362D1*
X28098D1*
Y36212D1*
X13205Y36066D2*
X26816D1*
X13205Y35769D2*
X26816D1*
X13205Y35472D2*
X26816D1*
X13205Y35176D2*
X26816D1*
X13205Y34879D2*
X26816D1*
X13205Y34582D2*
X26816D1*
X13205Y34286D2*
X26816D1*
X13205Y33989D2*
X26816D1*
X13205Y33692D2*
X26816D1*
X13205Y33396D2*
X26816D1*
X13205Y33099D2*
X26816D1*
X13205Y32802D2*
X26816D1*
X13205Y32506D2*
X26816D1*
X13205Y32209D2*
X26816D1*
X13205Y31912D2*
X26816D1*
X13205Y31616D2*
X26816D1*
X13205Y31319D2*
X26816D1*
X13205Y31022D2*
X26816D1*
X13205Y30726D2*
X26816D1*
X13205Y30429D2*
X26816D1*
X13205Y30132D2*
X26816D1*
X13205Y29836D2*
X26816D1*
X13205Y29539D2*
X26816D1*
X13205Y29242D2*
X26816D1*
X13205Y28946D2*
X26816D1*
X13205Y28649D2*
X26816D1*
X13205Y28352D2*
X26816D1*
X13205Y28056D2*
X26816D1*
X13205Y27759D2*
X26816D1*
X13205Y27462D2*
X26816D1*
X13205Y27166D2*
X26816D1*
X13205Y26869D2*
X26816D1*
X13205Y26572D2*
X26816D1*
X13205Y26276D2*
X26816D1*
X13205Y25979D2*
X26816D1*
X13205Y25682D2*
X26816D1*
X13205Y25386D2*
X26816D1*
X13205Y25089D2*
X26816D1*
X13205Y24792D2*
X26816D1*
X13205Y24496D2*
X26816D1*
X13205Y24199D2*
X26816D1*
X13205Y23902D2*
X26816D1*
X13205Y23606D2*
X26816D1*
X13205Y23309D2*
X26816D1*
X13205Y23012D2*
X26816D1*
X13205Y22716D2*
X26816D1*
X13205Y22419D2*
X26816D1*
X13205Y22122D2*
X26816D1*
X13205Y21826D2*
X26816D1*
X13205Y21529D2*
X26816D1*
X13205Y21232D2*
X26816D1*
X13205Y20936D2*
X26816D1*
X13205Y20639D2*
X26816D1*
X13205Y20342D2*
X26816D1*
X13205Y20046D2*
X26816D1*
X13205Y19749D2*
X26816D1*
X13205Y19452D2*
X26816D1*
X13205Y19156D2*
X26816D1*
X13205Y18859D2*
X26816D1*
X13205Y18562D2*
X26816D1*
X13205Y18266D2*
X26816D1*
X13205Y17969D2*
X26816D1*
X13205Y17672D2*
X26816D1*
X13205Y17376D2*
X26816D1*
X13205Y17079D2*
X26816D1*
X13205Y16782D2*
X26816D1*
X13205Y16486D2*
X26816D1*
X13205Y16189D2*
X26816D1*
X13205Y15892D2*
X26816D1*
X13205Y15596D2*
X26816D1*
X13175Y36213D2*
Y15390D1*
X26845D1*
Y36363D1*
X13175D1*
Y36213D1*
D17*
X25408Y35560D3*
Y38360D3*
X40648Y35560D3*
Y38360D3*
X55888Y35560D3*
Y38360D3*
X71128Y35560D3*
Y38360D3*
X86368Y35560D3*
Y38360D3*
D18*
X11120Y25083D3*
Y23183D3*
D19*
X93988Y27940D3*
Y20320D3*
X4770Y27940D3*
Y20320D3*
D18*
X11120Y27623D3*
Y29523D3*
D20*
X17788Y7620D3*
Y12720D3*
Y16820D3*
Y21920D3*
X33028Y7620D3*
Y12720D3*
Y16820D3*
Y21920D3*
X48268Y7620D3*
Y12720D3*
Y16820D3*
Y21920D3*
X63508Y7620D3*
Y12720D3*
Y16820D3*
Y21920D3*
X78748Y7620D3*
Y12720D3*
Y16820D3*
Y21920D3*
D21*
X17788Y33020D3*
Y41020D3*
X33028Y33020D3*
Y41020D3*
X48268Y33020D3*
Y41020D3*
X63508Y33020D3*
Y41020D3*
X78748Y33020D3*
Y41020D3*
M02*
