M48
METRIC,0000.00
T01C2.2
T02C2.6
T03C3.0
T04C3.5
%
T01
X+001779Y+003302
X+001779Y+004102
X+003303Y+004102
X+003303Y+003302
X+004827Y+003302
X+004827Y+004102
X+006351Y+004102
X+006351Y+003302
X+007875Y+003302
X+007875Y+004102
T02
X+001779Y+000762
X+001779Y+001272
X+001779Y+001682
X+001779Y+002192
X+003303Y+002192
X+003303Y+001682
X+003303Y+001272
X+003303Y+000762
X+004827Y+000762
X+004827Y+001272
X+004827Y+001682
X+004827Y+002192
X+006351Y+002192
X+006351Y+001682
X+006351Y+001272
X+006351Y+000762
X+007875Y+000762
X+007875Y+001272
X+007875Y+001682
X+007875Y+002192
T03
X+009399Y+002794
X+009399Y+002032
X+000477Y+002032
X+000477Y+002794
T04
X+000414Y+004572
X+000414Y+000413
X+009589Y+000413
X+009589Y+004572
T00
M30
