G04 DipTrace 2.4.0.2*
%INPowerPoleExpander.GTO*%
%MOMM*%
%ADD10C,0.25*%
%ADD32C,0.157*%
%ADD33C,0.392*%
%ADD34C,0.51*%
%FSLAX53Y53*%
G04*
G71*
G90*
G75*
G01*
%LNTopSilk*%
%LPD*%
X26658Y36850D2*
D10*
X24157D1*
X26658Y36661D2*
X24157D1*
X26658D2*
Y37259D1*
X24157Y36661D2*
Y37259D1*
X41898Y36850D2*
X39397D1*
X41898Y36661D2*
X39397D1*
X41898D2*
Y37259D1*
X39397Y36661D2*
Y37259D1*
X57138Y36850D2*
X54637D1*
X57138Y36661D2*
X54637D1*
X57138D2*
Y37259D1*
X54637Y36661D2*
Y37259D1*
X72378Y36850D2*
X69877D1*
X72378Y36661D2*
X69877D1*
X72378D2*
Y37259D1*
X69877Y36661D2*
Y37259D1*
X87618Y36850D2*
X85117D1*
X87618Y36661D2*
X85117D1*
X87618D2*
Y37259D1*
X85117Y36661D2*
Y37259D1*
X10471Y26032D2*
X11770D1*
X14454Y4763D2*
X21121D1*
Y24924D1*
X14454D1*
Y4763D1*
X29694D2*
X36361D1*
Y24924D1*
X29694D1*
Y4763D1*
X44934D2*
X51601D1*
Y24924D1*
X44934D1*
Y4763D1*
X60174D2*
X66841D1*
Y24924D1*
X60174D1*
Y4763D1*
X75414D2*
X82081D1*
Y24924D1*
X75414D1*
Y4763D1*
X22391Y28575D2*
X13391D1*
Y45575D1*
X22391D1*
Y28575D1*
X37631D2*
X28631D1*
Y45575D1*
X37631D1*
Y28575D1*
X52871D2*
X43871D1*
Y45575D1*
X52871D1*
Y28575D1*
X68111D2*
X59111D1*
Y45575D1*
X68111D1*
Y28575D1*
X83351D2*
X74351D1*
Y45575D1*
X83351D1*
Y28575D1*
X93810Y15343D2*
D33*
Y13156D1*
X92718Y14248D2*
X94905D1*
X93911Y33275D2*
D34*
Y35100D1*
X13576Y26329D2*
D32*
X12555D1*
Y25747D1*
X13576Y24802D2*
Y25433D1*
X12555D1*
Y24802D1*
X13090Y25433D2*
Y25044D1*
X13576Y24488D2*
X12555D1*
Y24148D1*
X12604Y24002D1*
X12701Y23904D1*
X12799Y23856D1*
X12944Y23807D1*
X13187D1*
X13333Y23856D1*
X13430Y23904D1*
X13528Y24002D1*
X13576Y24148D1*
Y24488D1*
X10798Y33402D2*
X11235D1*
X11381Y33451D1*
X11430Y33499D1*
X11478Y33596D1*
Y33694D1*
X11430Y33790D1*
X11381Y33840D1*
X11235Y33888D1*
X10798D1*
Y32867D1*
X11138Y33402D2*
X11478Y32867D1*
X11792Y33693D2*
X11890Y33742D1*
X12036Y33887D1*
Y32867D1*
X4592Y15343D2*
D33*
Y13156D1*
X3500Y14248D2*
X5687D1*
X4693Y33275D2*
D34*
Y35100D1*
M02*
