G04 DipTrace 2.4.0.2*
%INPowerPoleExpander.GTS*%
%MOMM*%
%ADD22C,3.5*%
%ADD27C,5.1*%
%ADD28O,6.1X3.6*%
%ADD29C,6.1*%
%ADD30R,1.6X1.4*%
%ADD31R,2.8X1.7*%
%FSLAX53Y53*%
G04*
G71*
G90*
G75*
G01*
%LNTopMask*%
%LPD*%
D31*
X25408Y35560D3*
Y38360D3*
X40648Y35560D3*
Y38360D3*
X55888Y35560D3*
Y38360D3*
X71128Y35560D3*
Y38360D3*
X86368Y35560D3*
Y38360D3*
D30*
X11120Y25083D3*
Y23183D3*
D22*
X4136Y45720D3*
Y4128D3*
X95893Y45720D3*
Y4128D3*
D29*
X93988Y27940D3*
Y20320D3*
X4770Y27940D3*
Y20320D3*
D30*
X11120Y27623D3*
Y29523D3*
D28*
X17788Y7620D3*
Y12720D3*
Y16820D3*
Y21920D3*
X33028Y7620D3*
Y12720D3*
Y16820D3*
Y21920D3*
X48268Y7620D3*
Y12720D3*
Y16820D3*
Y21920D3*
X63508Y7620D3*
Y12720D3*
Y16820D3*
Y21920D3*
X78748Y7620D3*
Y12720D3*
Y16820D3*
Y21920D3*
D27*
X17788Y33020D3*
Y41020D3*
X33028Y33020D3*
Y41020D3*
X48268Y33020D3*
Y41020D3*
X63508Y33020D3*
Y41020D3*
X78748Y33020D3*
Y41020D3*
G36*
X89225Y30798D2*
X98750D1*
Y25083D1*
X89225D1*
Y30798D1*
G37*
G36*
Y23178D2*
X98750D1*
Y17463D1*
X89225D1*
Y23178D1*
G37*
G36*
X960Y30798D2*
X9533D1*
Y25083D1*
X960D1*
Y30798D1*
G37*
G36*
Y23178D2*
X9533D1*
Y17463D1*
X960D1*
Y23178D1*
G37*
M02*
